<?xml version="1.0" encoding="UTF-8" standalone="no"?><!DOCTYPE svg PUBLIC "-//W3C//DTD SVG 1.1//EN" "http://www.w3.org/Graphics/SVG/1.1/DTD/svg11.dtd"><svg width="100%" height="100%" viewBox="0 0 60 53" version="1.1" xmlns="http://www.w3.org/2000/svg" xmlns:xlink="http://www.w3.org/1999/xlink" xml:space="preserve" style="fill-rule:evenodd;clip-rule:evenodd;stroke-linejoin:round;stroke-miterlimit:1.41421;"><g id="logo"><g><g><path d="M0.03,43.032l0.99,0l0,6.188l1.62,0l0,0.796l-2.61,0l0,-6.984Z" style="fill:#cf2100;fill-rule:nonzero;"/><path d="M6.117,47.714c0,1.583 -0.516,2.375 -1.548,2.375c-1.032,0 -1.548,-0.804 -1.548,-2.411c0,-1.614 0.514,-2.42 1.543,-2.42c0.267,0 0.498,0.048 0.693,0.144c0.195,0.097 0.357,0.246 0.484,0.448c0.127,0.202 0.221,0.457 0.283,0.765c0.062,0.307 0.093,0.674 0.093,1.099Zm-0.943,-0.023c0,-0.615 -0.043,-1.043 -0.129,-1.284c-0.086,-0.245 -0.238,-0.367 -0.457,-0.367c-0.216,0 -0.37,0.121 -0.462,0.362c-0.086,0.241 -0.129,0.662 -0.129,1.262c0,0.6 0.043,1.019 0.129,1.258c0.092,0.241 0.246,0.361 0.462,0.361c0.216,0 0.367,-0.119 0.452,-0.357c0.089,-0.223 0.134,-0.635 0.134,-1.235Z" style="fill:#cf2100;fill-rule:nonzero;"/><path d="M9.78,45.335l0,4.681l-0.91,0l0,-0.601c-0.13,0.256 -0.261,0.432 -0.391,0.529c-0.13,0.096 -0.301,0.145 -0.514,0.145c-0.41,0 -0.71,-0.199 -0.9,-0.598c-0.191,-0.398 -0.286,-1.022 -0.286,-1.872c0,-0.811 0.095,-1.408 0.286,-1.789c0.19,-0.382 0.49,-0.572 0.9,-0.572c0.375,0 0.676,0.202 0.905,0.606l0,-0.529l0.91,0Zm-2.058,2.32c0,0.615 0.043,1.045 0.129,1.289c0.088,0.244 0.244,0.367 0.466,0.367c0.204,0 0.351,-0.127 0.443,-0.38c0.092,-0.272 0.138,-0.689 0.138,-1.253c0,-0.567 -0.046,-0.986 -0.138,-1.258c-0.092,-0.253 -0.239,-0.38 -0.443,-0.38c-0.216,0 -0.37,0.121 -0.462,0.362c-0.089,0.223 -0.133,0.641 -0.133,1.253Z" style="fill:#cf2100;fill-rule:nonzero;"/><path d="M10.813,45.335l0.91,0l0,0.538c0.26,-0.41 0.597,-0.615 1.01,-0.615c0.4,0 0.686,0.149 0.857,0.448c0.095,0.168 0.143,0.496 0.143,0.981l0,3.329l-0.91,0l-0.005,-3.13c0,-0.317 -0.039,-0.541 -0.119,-0.674c-0.079,-0.133 -0.216,-0.199 -0.409,-0.199c-0.105,0 -0.193,0.017 -0.265,0.052c-0.071,0.035 -0.129,0.091 -0.173,0.167c-0.045,0.077 -0.077,0.178 -0.098,0.301c-0.021,0.124 -0.031,0.276 -0.031,0.457l0,3.026l-0.91,0l0,-4.681Z" style="fill:#cf2100;fill-rule:nonzero;"/><path d="M18.796,45.425l0,0.882c-0.127,-0.148 -0.279,-0.222 -0.457,-0.222c-0.502,0 -0.753,0.516 -0.753,1.547c0,1.095 0.249,1.642 0.748,1.642c0.14,0 0.294,-0.058 0.462,-0.176l0,0.81c-0.241,0.12 -0.486,0.181 -0.733,0.181c-0.978,0 -1.467,-0.791 -1.467,-2.371c0,-0.841 0.12,-1.461 0.362,-1.861c0.241,-0.4 0.616,-0.599 1.124,-0.599c0.244,0 0.482,0.055 0.714,0.167Z" style="fill:#cf2100;fill-rule:nonzero;"/><path d="M22.383,45.335l0,4.681l-0.91,0l0,-0.601c-0.13,0.256 -0.261,0.432 -0.391,0.529c-0.13,0.096 -0.301,0.145 -0.514,0.145c-0.41,0 -0.71,-0.199 -0.9,-0.598c-0.191,-0.398 -0.286,-1.022 -0.286,-1.872c0,-0.811 0.095,-1.408 0.286,-1.789c0.19,-0.382 0.49,-0.572 0.9,-0.572c0.375,0 0.676,0.202 0.905,0.606l0,-0.529l0.91,0Zm-2.058,2.32c0,0.615 0.043,1.045 0.129,1.289c0.088,0.244 0.244,0.367 0.466,0.367c0.204,0 0.351,-0.127 0.443,-0.38c0.092,-0.272 0.138,-0.689 0.138,-1.253c0,-0.567 -0.046,-0.986 -0.138,-1.258c-0.092,-0.253 -0.239,-0.38 -0.443,-0.38c-0.216,0 -0.37,0.121 -0.462,0.362c-0.089,0.223 -0.133,0.641 -0.133,1.253Z" style="fill:#cf2100;fill-rule:nonzero;"/><rect x="23.416" y="42.331" width="0.91" height="7.685" style="fill:#cf2100;fill-rule:nonzero;"/><path d="M27.374,45.425l0,0.882c-0.127,-0.148 -0.279,-0.222 -0.457,-0.222c-0.502,0 -0.753,0.516 -0.753,1.547c0,1.095 0.25,1.642 0.748,1.642c0.14,0 0.294,-0.058 0.462,-0.176l0,0.81c-0.241,0.12 -0.486,0.181 -0.733,0.181c-0.978,0 -1.467,-0.791 -1.467,-2.371c0,-0.841 0.12,-1.461 0.362,-1.861c0.241,-0.4 0.616,-0.599 1.124,-0.599c0.244,0 0.482,0.055 0.714,0.167Z" style="fill:#cf2100;fill-rule:nonzero;"/><path d="M28.146,45.335l0.91,0l0,3.13c0.006,0.289 0.051,0.496 0.135,0.619c0.085,0.124 0.225,0.186 0.422,0.186c0.206,0 0.351,-0.054 0.433,-0.163c0.083,-0.115 0.124,-0.314 0.124,-0.597l0,-0.375l0,-2.8l0.91,0l0,2.8c0,0.654 -0.051,1.091 -0.152,1.311c-0.213,0.428 -0.655,0.643 -1.325,0.643c-0.527,0 -0.901,-0.127 -1.124,-0.38c-0.222,-0.257 -0.333,-0.683 -0.333,-1.28l0,-3.094Z" style="fill:#cf2100;fill-rule:nonzero;"/><rect x="32.109" y="42.331" width="0.91" height="7.685" style="fill:#cf2100;fill-rule:nonzero;"/><path d="M36.867,45.335l0,4.681l-0.91,0l0,-0.601c-0.13,0.256 -0.26,0.432 -0.39,0.529c-0.13,0.096 -0.302,0.145 -0.515,0.145c-0.409,0 -0.709,-0.199 -0.9,-0.598c-0.19,-0.398 -0.286,-1.022 -0.286,-1.872c0,-0.811 0.096,-1.408 0.286,-1.789c0.191,-0.382 0.491,-0.572 0.9,-0.572c0.375,0 0.677,0.202 0.905,0.606l0,-0.529l0.91,0Zm-2.058,2.32c0,0.615 0.043,1.045 0.129,1.289c0.089,0.244 0.244,0.367 0.467,0.367c0.203,0 0.351,-0.127 0.443,-0.38c0.092,-0.272 0.138,-0.689 0.138,-1.253c0,-0.567 -0.046,-0.986 -0.138,-1.258c-0.092,-0.253 -0.24,-0.38 -0.443,-0.38c-0.216,0 -0.37,0.121 -0.462,0.362c-0.089,0.223 -0.134,0.641 -0.134,1.253Z" style="fill:#cf2100;fill-rule:nonzero;"/><path d="M38.01,44.023l0.91,0l0,1.312l0.495,0l0,0.687l-0.495,0l0,3.994l-0.91,0l0,-3.994l-0.5,0l0,-0.687l0.5,0l0,-1.312Z" style="fill:#cf2100;fill-rule:nonzero;"/><path d="M42.959,47.714c0,1.583 -0.516,2.375 -1.548,2.375c-1.032,0 -1.548,-0.804 -1.548,-2.411c0,-1.614 0.514,-2.42 1.543,-2.42c0.267,0 0.498,0.048 0.693,0.144c0.195,0.097 0.357,0.246 0.484,0.448c0.127,0.202 0.221,0.457 0.283,0.765c0.062,0.307 0.093,0.674 0.093,1.099Zm-0.943,-0.023c0,-0.615 -0.043,-1.043 -0.129,-1.284c-0.085,-0.245 -0.238,-0.367 -0.457,-0.367c-0.216,0 -0.37,0.121 -0.462,0.362c-0.086,0.241 -0.129,0.662 -0.129,1.262c0,0.6 0.043,1.019 0.129,1.258c0.092,0.241 0.246,0.361 0.462,0.361c0.216,0 0.367,-0.119 0.452,-0.357c0.089,-0.223 0.134,-0.635 0.134,-1.235Z" style="fill:#cf2100;fill-rule:nonzero;"/><path d="M43.807,45.335l0.91,0l0,0.583c0.155,-0.247 0.309,-0.421 0.462,-0.52c0.152,-0.1 0.354,-0.157 0.604,-0.172l0,0.905c-0.063,-0.009 -0.117,-0.014 -0.162,-0.014c-0.327,0 -0.56,0.08 -0.7,0.24c-0.136,0.157 -0.204,0.431 -0.204,0.823l0,2.836l-0.91,0l0,-4.681Z" style="fill:#cf2100;fill-rule:nonzero;"/><path d="M51.247,45.335l0,4.681l-0.91,0l0,-0.601c-0.13,0.256 -0.26,0.432 -0.391,0.529c-0.13,0.096 -0.301,0.145 -0.514,0.145c-0.41,0 -0.71,-0.199 -0.9,-0.598c-0.191,-0.398 -0.286,-1.022 -0.286,-1.872c0,-0.811 0.095,-1.408 0.286,-1.789c0.19,-0.382 0.49,-0.572 0.9,-0.572c0.375,0 0.676,0.202 0.905,0.606l0,-0.529l0.91,0Zm-2.058,2.32c0,0.615 0.043,1.045 0.129,1.289c0.089,0.244 0.244,0.367 0.466,0.367c0.204,0 0.351,-0.127 0.443,-0.38c0.092,-0.272 0.138,-0.689 0.138,-1.253c0,-0.567 -0.046,-0.986 -0.138,-1.258c-0.092,-0.253 -0.239,-0.38 -0.443,-0.38c-0.216,0 -0.37,0.121 -0.462,0.362c-0.089,0.223 -0.133,0.641 -0.133,1.253Z" style="fill:#cf2100;fill-rule:nonzero;"/><path d="M52.28,51.934l0,-6.599l0.91,0l0,0.606c0.127,-0.257 0.257,-0.435 0.391,-0.534c0.133,-0.1 0.308,-0.149 0.523,-0.149c0.407,0 0.705,0.199 0.894,0.599c0.188,0.4 0.283,1.025 0.283,1.875c0,0.832 -0.097,1.431 -0.291,1.796c-0.19,0.374 -0.497,0.561 -0.919,0.561c-0.203,0 -0.37,-0.044 -0.5,-0.132c-0.064,-0.042 -0.127,-0.102 -0.191,-0.181c-0.063,-0.078 -0.127,-0.173 -0.19,-0.285l0,2.443l-0.91,0Zm2.058,-4.234c0,-0.636 -0.045,-1.067 -0.134,-1.293c-0.085,-0.245 -0.239,-0.367 -0.462,-0.367c-0.209,0 -0.358,0.127 -0.447,0.38c-0.089,0.235 -0.134,0.655 -0.134,1.258c0,0.603 0.045,1.022 0.134,1.257c0.092,0.25 0.241,0.376 0.447,0.376c0.216,0 0.37,-0.121 0.462,-0.362c0.089,-0.223 0.134,-0.64 0.134,-1.249Z" style="fill:#cf2100;fill-rule:nonzero;"/><path d="M56.129,51.934l0,-6.599l0.909,0l0,0.606c0.127,-0.257 0.258,-0.435 0.391,-0.534c0.133,-0.1 0.308,-0.149 0.524,-0.149c0.406,0 0.704,0.199 0.893,0.599c0.189,0.4 0.283,1.025 0.283,1.875c0,0.832 -0.096,1.431 -0.29,1.796c-0.191,0.374 -0.497,0.561 -0.919,0.561c-0.204,0 -0.37,-0.044 -0.5,-0.132c-0.064,-0.042 -0.127,-0.102 -0.191,-0.181c-0.064,-0.078 -0.127,-0.173 -0.191,-0.285l0,2.443l-0.909,0Zm2.057,-4.234c0,-0.636 -0.044,-1.067 -0.133,-1.293c-0.086,-0.245 -0.24,-0.367 -0.462,-0.367c-0.21,0 -0.359,0.127 -0.448,0.38c-0.089,0.235 -0.133,0.655 -0.133,1.258c0,0.603 0.044,1.022 0.133,1.257c0.092,0.25 0.242,0.376 0.448,0.376c0.216,0 0.37,-0.121 0.462,-0.362c0.089,-0.223 0.133,-0.64 0.133,-1.249Z" style="fill:#cf2100;fill-rule:nonzero;"/></g></g><g id="Circle"><path d="M29.463,0.203c10.782,0 19.536,8.313 19.536,18.552c0,10.24 -8.754,18.553 -19.536,18.553c-10.782,0 -19.536,-8.313 -19.536,-18.553c0,-10.239 8.754,-18.552 19.536,-18.552Zm0,1.602c9.851,0 17.848,7.595 17.848,16.95c0,9.355 -7.997,16.95 -17.848,16.95c-9.851,0 -17.849,-7.595 -17.849,-16.95c0,-9.355 7.998,-16.95 17.849,-16.95Z" style="fill:#cf2100;"/><g><path d="M21.801,24.063l2.988,0l-2.702,-3.634c1.124,-0.446 1.628,-1.339 1.628,-2.662l0,-1.307c0,-1.992 -1.007,-3.012 -3.726,-3.012l-4.649,0l0,10.615l2.517,0l0,-3.299l1.477,0l2.467,3.299Zm-0.604,-6.535c0,0.797 -0.269,1.164 -1.343,1.164l-1.997,0l0,-3.124l1.997,0c1.024,0 1.343,0.318 1.343,1.115l0,0.845Z" style="fill:#cf2100;fill-rule:nonzero;"/><path d="M34.137,21.529l0,-1.036c0,-0.989 -0.722,-1.754 -1.645,-1.961c0.89,-0.366 1.242,-0.908 1.242,-1.673l0,-1.084c0,-1.435 -0.856,-2.327 -3.189,-2.327l-4.414,0l0,10.615l4.767,0c2.232,0 3.239,-1.036 3.239,-2.534Zm-2.92,-4.479c0,0.43 -0.336,0.749 -1.007,0.749l-1.561,0l0,-2.423l1.561,0c0.705,0 1.007,0.287 1.007,0.749l0,0.925Zm0.403,4.16c0,0.765 -0.621,0.924 -1.41,0.924l-1.561,0l0,-2.47l1.913,0c0.672,0 1.058,0.303 1.058,0.892l0,0.654Z" style="fill:#cf2100;fill-rule:nonzero;"/><path d="M43.838,21.305l0,-5.1c0,-1.434 -1.024,-2.757 -3.776,-2.757l-4.331,0l0,10.615l4.331,0c2.752,0 3.776,-1.339 3.776,-2.758Zm-2.518,-0.653c0,0.829 -0.302,1.291 -1.56,1.291l-1.511,0l0,-6.375l1.511,0c1.258,0 1.56,0.462 1.56,1.291l0,3.793Z" style="fill:#cf2100;fill-rule:nonzero;"/></g></g></g></svg>